<svg width="92" height="50" viewBox="0 0 92 50" fill="none" xmlns="http://www.w3.org/2000/svg">
<rect width="92" height="50" rx="25" fill="white"/>
<path opacity="0.7" d="M34.6509 29.548V31.5H27.7629V19.892H30.1629V29.548H34.6509ZM39.1945 23.124C39.8132 23.124 40.3758 23.2227 40.8825 23.42C41.3892 23.6173 41.8238 23.9 42.1865 24.268C42.5492 24.6307 42.8292 25.0733 43.0265 25.596C43.2238 26.1187 43.3225 26.708 43.3225 27.364C43.3225 28.02 43.2238 28.612 43.0265 29.14C42.8292 29.6627 42.5492 30.108 42.1865 30.476C41.8238 30.844 41.3892 31.1267 40.8825 31.324C40.3758 31.5213 39.8132 31.62 39.1945 31.62C38.5705 31.62 38.0025 31.5213 37.4905 31.324C36.9838 31.1267 36.5492 30.844 36.1865 30.476C35.8238 30.108 35.5412 29.6627 35.3385 29.14C35.1412 28.612 35.0425 28.02 35.0425 27.364C35.0425 26.708 35.1412 26.1187 35.3385 25.596C35.5412 25.0733 35.8238 24.6307 36.1865 24.268C36.5492 23.9 36.9838 23.6173 37.4905 23.42C38.0025 23.2227 38.5705 23.124 39.1945 23.124ZM39.1945 29.964C39.8238 29.964 40.2905 29.748 40.5945 29.316C40.8985 28.8787 41.0505 28.2307 41.0505 27.372C41.0505 26.5187 40.8985 25.876 40.5945 25.444C40.2905 25.0067 39.8238 24.788 39.1945 24.788C38.5492 24.788 38.0745 25.0067 37.7705 25.444C37.4665 25.876 37.3145 26.5187 37.3145 27.372C37.3145 28.2307 37.4665 28.8787 37.7705 29.316C38.0745 29.748 38.5492 29.964 39.1945 29.964ZM47.7028 27.068C48.1561 27.068 48.4894 26.9533 48.7028 26.724C48.9214 26.4947 49.0308 26.1987 49.0308 25.836C49.0308 25.4573 48.9214 25.1613 48.7028 24.948C48.4894 24.7293 48.1561 24.62 47.7028 24.62C47.2494 24.62 46.9161 24.7293 46.7028 24.948C46.4894 25.1613 46.3828 25.4573 46.3828 25.836C46.3828 26.1933 46.4894 26.4893 46.7028 26.724C46.9214 26.9533 47.2548 27.068 47.7028 27.068ZM49.7908 31.836C49.7908 31.692 49.7454 31.5747 49.6548 31.484C49.5641 31.3933 49.4414 31.3213 49.2868 31.268C49.1374 31.2147 48.9588 31.1773 48.7508 31.156C48.5428 31.1293 48.3214 31.1107 48.0868 31.1C47.8521 31.084 47.6094 31.0707 47.3588 31.06C47.1081 31.0493 46.8628 31.0307 46.6228 31.004C46.4361 31.116 46.2814 31.2493 46.1588 31.404C46.0414 31.5533 45.9828 31.724 45.9828 31.916C45.9828 32.0493 46.0121 32.172 46.0707 32.284C46.1348 32.396 46.2388 32.492 46.3828 32.572C46.5268 32.652 46.7161 32.7133 46.9508 32.756C47.1854 32.804 47.4788 32.828 47.8307 32.828C48.1934 32.828 48.5001 32.804 48.7508 32.756C49.0014 32.708 49.2041 32.6387 49.3588 32.548C49.5134 32.4627 49.6228 32.3587 49.6868 32.236C49.7561 32.1133 49.7908 31.98 49.7908 31.836ZM51.9827 23.524V24.332C51.9827 24.46 51.9454 24.5613 51.8708 24.636C51.8014 24.7107 51.6841 24.7667 51.5188 24.804L50.8468 24.94C50.9374 25.2013 50.9828 25.4813 50.9828 25.78C50.9828 26.1907 50.8974 26.5613 50.7268 26.892C50.5614 27.2173 50.3321 27.4973 50.0388 27.732C49.7454 27.9613 49.3988 28.14 48.9988 28.268C48.5988 28.3907 48.1668 28.452 47.7028 28.452C47.4094 28.452 47.1348 28.428 46.8788 28.38C46.6548 28.5187 46.5428 28.6707 46.5428 28.836C46.5428 28.9907 46.6174 29.1027 46.7668 29.172C46.9214 29.2413 47.1214 29.292 47.3668 29.324C47.6174 29.3507 47.9001 29.3693 48.2148 29.38C48.5348 29.3853 48.8574 29.4013 49.1828 29.428C49.5134 29.4547 49.8361 29.5027 50.1508 29.572C50.4708 29.636 50.7534 29.7453 50.9988 29.9C51.2494 30.0493 51.4494 30.2493 51.5988 30.5C51.7534 30.7507 51.8308 31.0733 51.8308 31.468C51.8308 31.836 51.7401 32.1933 51.5588 32.54C51.3774 32.8867 51.1134 33.196 50.7668 33.468C50.4254 33.74 50.0041 33.9587 49.5028 34.124C49.0014 34.2893 48.4308 34.372 47.7908 34.372C47.1561 34.372 46.6041 34.3107 46.1348 34.188C45.6708 34.0707 45.2841 33.9107 44.9748 33.708C44.6708 33.5107 44.4441 33.2813 44.2948 33.02C44.1454 32.7587 44.0708 32.4867 44.0708 32.204C44.0708 31.836 44.1828 31.524 44.4068 31.268C44.6308 31.012 44.9401 30.8067 45.3348 30.652C45.1268 30.5347 44.9588 30.3827 44.8308 30.196C44.7081 30.004 44.6468 29.756 44.6468 29.452C44.6468 29.2067 44.7348 28.948 44.9108 28.676C45.0921 28.404 45.3694 28.1773 45.7428 27.996C45.3214 27.772 44.9881 27.4733 44.7428 27.1C44.4974 26.7213 44.3748 26.2813 44.3748 25.78C44.3748 25.3693 44.4574 24.9987 44.6228 24.668C44.7934 24.3373 45.0281 24.0573 45.3268 23.828C45.6254 23.5933 45.9774 23.4147 46.3828 23.292C46.7881 23.1693 47.2281 23.108 47.7028 23.108C48.4068 23.108 49.0281 23.2467 49.5668 23.524H51.9827ZM55.4028 23.252V31.5H53.1948V23.252H55.4028ZM55.6668 20.908C55.6668 21.0947 55.6294 21.268 55.5548 21.428C55.4801 21.588 55.3788 21.7293 55.2508 21.852C55.1281 21.9747 54.9814 22.0707 54.8108 22.14C54.6454 22.2093 54.4668 22.244 54.2747 22.244C54.0934 22.244 53.9201 22.2093 53.7548 22.14C53.5948 22.0707 53.4534 21.9747 53.3308 21.852C53.2081 21.7293 53.1094 21.588 53.0348 21.428C52.9654 21.268 52.9308 21.0947 52.9308 20.908C52.9308 20.7213 52.9654 20.548 53.0348 20.388C53.1094 20.2227 53.2081 20.0787 53.3308 19.956C53.4534 19.8333 53.5948 19.7373 53.7548 19.668C53.9201 19.5987 54.0934 19.564 54.2747 19.564C54.4668 19.564 54.6454 19.5987 54.8108 19.668C54.9814 19.7373 55.1281 19.8333 55.2508 19.956C55.3788 20.0787 55.4801 20.2227 55.5548 20.388C55.6294 20.548 55.6668 20.7213 55.6668 20.908ZM59.335 24.212C59.5003 24.052 59.671 23.9053 59.847 23.772C60.0283 23.6387 60.2177 23.524 60.415 23.428C60.6177 23.332 60.8337 23.2573 61.063 23.204C61.2977 23.1507 61.551 23.124 61.823 23.124C62.271 23.124 62.6683 23.2013 63.015 23.356C63.3617 23.5107 63.6523 23.7267 63.887 24.004C64.127 24.2813 64.3057 24.612 64.423 24.996C64.5457 25.38 64.607 25.8013 64.607 26.26V31.5H62.407V26.26C62.407 25.8013 62.3003 25.4467 62.087 25.196C61.8737 24.94 61.559 24.812 61.143 24.812C60.8337 24.812 60.543 24.8787 60.271 25.012C59.999 25.1453 59.7403 25.332 59.495 25.572V31.5H57.287V23.252H58.647C58.9243 23.252 59.1083 23.38 59.199 23.636L59.335 24.212Z" fill="#12141D"/>
</svg>
