<svg width="92" height="50" viewBox="0 0 92 50" fill="none" xmlns="http://www.w3.org/2000/svg">
<rect width="92" height="50" rx="25" fill="#043A53"/>
<path d="M27.2384 22.116C27.1637 22.2387 27.0864 22.3293 27.0064 22.388C26.9317 22.4413 26.833 22.468 26.7104 22.468C26.593 22.468 26.465 22.428 26.3264 22.348C26.193 22.2627 26.0357 22.172 25.8544 22.076C25.673 21.98 25.465 21.892 25.2304 21.812C24.9957 21.7267 24.721 21.684 24.4064 21.684C23.8517 21.684 23.4357 21.8093 23.1584 22.06C22.881 22.3053 22.7424 22.628 22.7424 23.028C22.7424 23.284 22.817 23.4973 22.9664 23.668C23.121 23.8333 23.321 23.9773 23.5664 24.1C23.817 24.2227 24.0997 24.332 24.4144 24.428C24.729 24.524 25.0517 24.6307 25.3824 24.748C25.713 24.86 26.0357 24.9933 26.3504 25.148C26.665 25.3027 26.945 25.4973 27.1904 25.732C27.441 25.9667 27.641 26.2547 27.7904 26.596C27.945 26.932 28.0224 27.3427 28.0224 27.828C28.0224 28.356 27.929 28.852 27.7424 29.316C27.561 29.7747 27.297 30.1773 26.9504 30.524C26.6037 30.8653 26.1744 31.1347 25.6624 31.332C25.1557 31.5293 24.5797 31.628 23.9344 31.628C23.5664 31.628 23.1984 31.5907 22.8304 31.516C22.4677 31.4413 22.1157 31.3373 21.7744 31.204C21.4384 31.0707 21.121 30.9107 20.8224 30.724C20.5237 30.5373 20.2624 30.3293 20.0384 30.1L20.7424 28.964C20.801 28.8787 20.8784 28.8093 20.9744 28.756C21.0704 28.6973 21.1717 28.668 21.2784 28.668C21.4224 28.668 21.5744 28.7213 21.7344 28.828C21.8944 28.9347 22.0784 29.052 22.2864 29.18C22.4944 29.308 22.7344 29.4253 23.0064 29.532C23.2837 29.6387 23.6144 29.692 23.9984 29.692C24.5584 29.692 24.9904 29.564 25.2944 29.308C25.6037 29.052 25.7584 28.6707 25.7584 28.164C25.7584 27.8707 25.681 27.6333 25.5264 27.452C25.377 27.2707 25.1797 27.1187 24.9344 26.996C24.689 26.8733 24.409 26.7693 24.0944 26.684C23.7797 26.5933 23.457 26.4947 23.1264 26.388C22.7957 26.2813 22.473 26.1533 22.1584 26.004C21.8437 25.8547 21.5637 25.6573 21.3184 25.412C21.073 25.1667 20.873 24.8627 20.7184 24.5C20.569 24.1373 20.4944 23.6867 20.4944 23.148C20.4944 22.716 20.5797 22.2973 20.7504 21.892C20.921 21.4867 21.1717 21.1267 21.5024 20.812C21.833 20.4973 22.2384 20.244 22.7184 20.052C23.2037 19.86 23.7584 19.764 24.3824 19.764C25.081 19.764 25.7264 19.8733 26.3184 20.092C26.9157 20.3053 27.4197 20.604 27.8304 20.988L27.2384 22.116ZM31.7153 23.252V31.5H29.5073V23.252H31.7153ZM31.9793 20.908C31.9793 21.0947 31.9419 21.268 31.8673 21.428C31.7926 21.588 31.6913 21.7293 31.5633 21.852C31.4406 21.9747 31.2939 22.0707 31.1233 22.14C30.9579 22.2093 30.7793 22.244 30.5872 22.244C30.4059 22.244 30.2326 22.2093 30.0673 22.14C29.9073 22.0707 29.7659 21.9747 29.6433 21.852C29.5206 21.7293 29.4219 21.588 29.3473 21.428C29.2779 21.268 29.2433 21.0947 29.2433 20.908C29.2433 20.7213 29.2779 20.548 29.3473 20.388C29.4219 20.2227 29.5206 20.0787 29.6433 19.956C29.7659 19.8333 29.9073 19.7373 30.0673 19.668C30.2326 19.5987 30.4059 19.564 30.5872 19.564C30.7793 19.564 30.9579 19.5987 31.1233 19.668C31.2939 19.7373 31.4406 19.8333 31.5633 19.956C31.6913 20.0787 31.7926 20.2227 31.8673 20.388C31.9419 20.548 31.9793 20.7213 31.9793 20.908ZM36.6715 27.068C37.1248 27.068 37.4582 26.9533 37.6715 26.724C37.8902 26.4947 37.9995 26.1987 37.9995 25.836C37.9995 25.4573 37.8902 25.1613 37.6715 24.948C37.4582 24.7293 37.1248 24.62 36.6715 24.62C36.2182 24.62 35.8848 24.7293 35.6715 24.948C35.4582 25.1613 35.3515 25.4573 35.3515 25.836C35.3515 26.1933 35.4582 26.4893 35.6715 26.724C35.8902 26.9533 36.2235 27.068 36.6715 27.068ZM38.7595 31.836C38.7595 31.692 38.7142 31.5747 38.6235 31.484C38.5328 31.3933 38.4102 31.3213 38.2555 31.268C38.1062 31.2147 37.9275 31.1773 37.7195 31.156C37.5115 31.1293 37.2902 31.1107 37.0555 31.1C36.8208 31.084 36.5782 31.0707 36.3275 31.06C36.0768 31.0493 35.8315 31.0307 35.5915 31.004C35.4048 31.116 35.2502 31.2493 35.1275 31.404C35.0102 31.5533 34.9515 31.724 34.9515 31.916C34.9515 32.0493 34.9808 32.172 35.0395 32.284C35.1035 32.396 35.2075 32.492 35.3515 32.572C35.4955 32.652 35.6848 32.7133 35.9195 32.756C36.1542 32.804 36.4475 32.828 36.7995 32.828C37.1622 32.828 37.4688 32.804 37.7195 32.756C37.9702 32.708 38.1728 32.6387 38.3275 32.548C38.4822 32.4627 38.5915 32.3587 38.6555 32.236C38.7248 32.1133 38.7595 31.98 38.7595 31.836ZM40.9515 23.524V24.332C40.9515 24.46 40.9142 24.5613 40.8395 24.636C40.7702 24.7107 40.6528 24.7667 40.4875 24.804L39.8155 24.94C39.9062 25.2013 39.9515 25.4813 39.9515 25.78C39.9515 26.1907 39.8662 26.5613 39.6955 26.892C39.5302 27.2173 39.3008 27.4973 39.0075 27.732C38.7142 27.9613 38.3675 28.14 37.9675 28.268C37.5675 28.3907 37.1355 28.452 36.6715 28.452C36.3782 28.452 36.1035 28.428 35.8475 28.38C35.6235 28.5187 35.5115 28.6707 35.5115 28.836C35.5115 28.9907 35.5862 29.1027 35.7355 29.172C35.8902 29.2413 36.0902 29.292 36.3355 29.324C36.5862 29.3507 36.8688 29.3693 37.1835 29.38C37.5035 29.3853 37.8262 29.4013 38.1515 29.428C38.4822 29.4547 38.8048 29.5027 39.1195 29.572C39.4395 29.636 39.7222 29.7453 39.9675 29.9C40.2182 30.0493 40.4182 30.2493 40.5675 30.5C40.7222 30.7507 40.7995 31.0733 40.7995 31.468C40.7995 31.836 40.7088 32.1933 40.5275 32.54C40.3462 32.8867 40.0822 33.196 39.7355 33.468C39.3942 33.74 38.9728 33.9587 38.4715 34.124C37.9702 34.2893 37.3995 34.372 36.7595 34.372C36.1248 34.372 35.5728 34.3107 35.1035 34.188C34.6395 34.0707 34.2528 33.9107 33.9435 33.708C33.6395 33.5107 33.4128 33.2813 33.2635 33.02C33.1142 32.7587 33.0395 32.4867 33.0395 32.204C33.0395 31.836 33.1515 31.524 33.3755 31.268C33.5995 31.012 33.9088 30.8067 34.3035 30.652C34.0955 30.5347 33.9275 30.3827 33.7995 30.196C33.6768 30.004 33.6155 29.756 33.6155 29.452C33.6155 29.2067 33.7035 28.948 33.8795 28.676C34.0608 28.404 34.3382 28.1773 34.7115 27.996C34.2902 27.772 33.9568 27.4733 33.7115 27.1C33.4662 26.7213 33.3435 26.2813 33.3435 25.78C33.3435 25.3693 33.4262 24.9987 33.5915 24.668C33.7622 24.3373 33.9968 24.0573 34.2955 23.828C34.5942 23.5933 34.9462 23.4147 35.3515 23.292C35.7568 23.1693 36.1968 23.108 36.6715 23.108C37.3755 23.108 37.9968 23.2467 38.5355 23.524H40.9515ZM44.1475 24.212C44.3128 24.052 44.4835 23.9053 44.6595 23.772C44.8408 23.6387 45.0302 23.524 45.2275 23.428C45.4302 23.332 45.6462 23.2573 45.8755 23.204C46.1102 23.1507 46.3635 23.124 46.6355 23.124C47.0835 23.124 47.4808 23.2013 47.8275 23.356C48.1742 23.5107 48.4648 23.7267 48.6995 24.004C48.9395 24.2813 49.1182 24.612 49.2355 24.996C49.3582 25.38 49.4195 25.8013 49.4195 26.26V31.5H47.2195V26.26C47.2195 25.8013 47.1128 25.4467 46.8995 25.196C46.6862 24.94 46.3715 24.812 45.9555 24.812C45.6462 24.812 45.3555 24.8787 45.0835 25.012C44.8115 25.1453 44.5528 25.332 44.3075 25.572V31.5H42.0995V23.252H43.4595C43.7368 23.252 43.9208 23.38 44.0115 23.636L44.1475 24.212ZM62.2145 23.252V31.5H60.8545C60.5718 31.5 60.3905 31.372 60.3105 31.116L60.1665 30.54C60.0012 30.7 59.8305 30.8467 59.6545 30.98C59.4785 31.1133 59.2892 31.228 59.0865 31.324C58.8892 31.42 58.6732 31.4947 58.4385 31.548C58.2092 31.6013 57.9585 31.628 57.6865 31.628C57.2385 31.628 56.8385 31.5507 56.4865 31.396C56.1398 31.2413 55.8492 31.0253 55.6145 30.748C55.3798 30.4707 55.2012 30.14 55.0785 29.756C54.9558 29.372 54.8945 28.9507 54.8945 28.492V23.252H57.1025V28.492C57.1025 28.9507 57.2065 29.308 57.4145 29.564C57.6278 29.8147 57.9425 29.94 58.3585 29.94C58.6678 29.94 58.9585 29.8733 59.2305 29.74C59.5025 29.6013 59.7612 29.4147 60.0065 29.18V23.252H62.2145ZM66.245 29.324C66.453 29.564 66.677 29.732 66.917 29.828C67.1623 29.924 67.4237 29.972 67.701 29.972C67.9677 29.972 68.2103 29.9213 68.429 29.82C68.6477 29.7187 68.8343 29.5613 68.989 29.348C69.149 29.1293 69.2717 28.852 69.357 28.516C69.4423 28.18 69.485 27.78 69.485 27.316C69.485 26.8573 69.4477 26.468 69.373 26.148C69.3037 25.828 69.2023 25.5693 69.069 25.372C68.941 25.1747 68.7837 25.0333 68.597 24.948C68.4103 24.8573 68.2023 24.812 67.973 24.812C67.5837 24.812 67.2557 24.8893 66.989 25.044C66.7277 25.1933 66.4797 25.4147 66.245 25.708V29.324ZM66.117 24.332C66.2823 24.1507 66.4583 23.9853 66.645 23.836C66.8317 23.6813 67.0317 23.5507 67.245 23.444C67.4583 23.332 67.6877 23.2467 67.933 23.188C68.1783 23.124 68.445 23.092 68.733 23.092C69.1757 23.092 69.581 23.188 69.949 23.38C70.3223 23.5667 70.6423 23.8413 70.909 24.204C71.1757 24.5613 71.3837 25.0013 71.533 25.524C71.6823 26.0467 71.757 26.644 71.757 27.316C71.757 27.9347 71.6717 28.508 71.501 29.036C71.3357 29.5587 71.0983 30.012 70.789 30.396C70.4797 30.78 70.1063 31.0813 69.669 31.3C69.237 31.5133 68.7543 31.62 68.221 31.62C67.773 31.62 67.3917 31.5533 67.077 31.42C66.7677 31.2867 66.4903 31.1053 66.245 30.876V34.164H64.037V23.252H65.397C65.6743 23.252 65.8583 23.38 65.949 23.636L66.117 24.332Z" fill="white"/>
</svg>
