<svg width="41" height="40" viewBox="0 0 41 40" fill="none" xmlns="http://www.w3.org/2000/svg">
<g id="remix-icons/line/finance/vip-diamond-line" clip-path="url(#clip0_1_389)">
<g id="Group">
<path id="Vector" d="M8.62167 5H32.3783C32.6413 4.99996 32.9006 5.06216 33.1349 5.1815C33.3693 5.30085 33.572 5.47395 33.7267 5.68667L40.0983 14.4467C40.2116 14.6025 40.2674 14.7928 40.2561 14.9852C40.2449 15.1775 40.1673 15.3601 40.0367 15.5017L21.1117 36.0033C20.9617 36.1654 20.7536 36.2613 20.533 36.2701C20.3124 36.2788 20.0973 36.1997 19.935 36.05C19.9233 36.04 13.6017 29.1917 0.963338 15.5017C0.832678 15.3601 0.755126 15.1775 0.743883 14.9852C0.732639 14.7928 0.788399 14.6025 0.901672 14.4467L7.27334 5.68667C7.42797 5.47395 7.63075 5.30085 7.86509 5.1815C8.09943 5.06216 8.35869 4.99996 8.62167 5ZM9.47167 8.33333L4.805 14.75L20.5 31.75L36.195 14.75L31.5283 8.33333H9.47167Z" fill="white"/>
</g>
</g>
<defs>
<clipPath id="clip0_1_389">
<rect width="40" height="40" fill="white" transform="translate(0.5)"/>
</clipPath>
</defs>
</svg>
