<svg width="42" height="34" viewBox="0 0 42 34" fill="none" xmlns="http://www.w3.org/2000/svg">
<path d="M41.08 29.2986C41.08 30.3453 40.6642 31.3491 39.9241 32.0892C39.184 32.8293 38.1802 33.2451 37.1335 33.2451H19.9617C18.915 33.2451 17.9112 32.8293 17.171 32.0892C16.4309 31.3491 16.0151 30.3453 16.0151 29.2986C16.0151 28.2519 16.4309 27.2481 17.171 26.508C17.9112 25.7679 18.915 25.3521 19.9617 25.3521H37.1364C38.1823 25.3536 39.1849 25.77 39.9243 26.5099C40.6636 27.2497 41.0792 28.2527 41.08 29.2986Z" fill="#004FDA"/>
<path d="M19.0613 21.7923L6.50574 32.324L6.47687 32.3471C6.10529 32.659 5.67826 32.8979 5.21814 33.0516C4.46599 33.3061 3.65451 33.3276 2.88991 33.1134C2.12531 32.8991 1.44319 32.459 0.932828 31.8507C0.422463 31.2424 0.107623 30.4942 0.0295079 29.704C-0.0486072 28.9138 0.113641 28.1184 0.495021 27.4219C0.728298 26.9894 1.04183 26.6054 1.41886 26.2902L12.9206 16.6419L16.1396 19.3412L16.4601 19.6126L16.5496 19.6848L16.9018 19.9735L19.0613 21.7923Z" fill="#F6E300"/>
<path d="M22.9785 16.5235C22.9849 16.6197 22.9849 16.7161 22.9785 16.8122V16.971L22.9611 17.1183C22.9611 17.1644 22.9611 17.2106 22.9438 17.2539C22.9294 17.3434 22.9092 17.4329 22.889 17.5195C22.7886 17.9938 22.6006 18.4452 22.3347 18.8504C22.1707 19.1046 21.9768 19.3382 21.7573 19.5462L21.6071 19.679L21.5638 19.7137L19.0608 21.7923L16.9013 19.9793L16.5491 19.6906L16.4596 19.6184L16.1392 19.347L12.9202 16.6477L16.1392 13.9454L16.4596 13.677L16.5491 13.6048L16.8869 13.3161L19.0608 11.4944L21.5725 13.6019L21.6591 13.677L21.7197 13.726L21.7428 13.752C21.9611 13.9538 22.1549 14.1806 22.3202 14.4276C22.5617 14.7913 22.7393 15.1936 22.8457 15.617C22.8457 15.617 22.8457 15.6315 22.8457 15.6372C22.8457 15.7007 22.8774 15.7643 22.889 15.8249C22.9121 15.9346 22.9294 16.0443 22.9467 16.1569L22.964 16.3128C22.964 16.3561 22.964 16.3994 22.964 16.4456C22.9708 16.4712 22.9756 16.4972 22.9785 16.5235Z" fill="#FD0075"/>
<path d="M19.061 11.4858L16.8871 13.3074L16.5493 13.5961L16.4599 13.6683L16.1394 13.9368L12.9204 16.639L1.47924 7.0369L1.3782 6.95029C1.01796 6.64395 0.718312 6.27283 0.494777 5.85612C0.0502766 5.05453 -0.101127 4.12314 0.0665871 3.22204C0.234301 2.32093 0.710658 1.50638 1.41379 0.918393C2.11691 0.330402 3.0029 0.00569348 3.91946 7.41741e-05C4.83603 -0.00554514 5.72592 0.308276 6.43621 0.887601L6.48529 0.928019L6.51416 0.948228L19.061 11.4858Z" fill="#00BE9C"/>
</svg>
