<svg width="96" height="20" viewBox="0 0 96 20" fill="none" xmlns="http://www.w3.org/2000/svg">
<path d="M15.6132 18.0528C11.1672 18.0528 7.56407 14.4478 7.56407 10.001C7.56407 5.55391 11.1672 1.95231 15.6132 1.95231C17.1803 1.95231 18.6433 2.39923 19.8793 3.17392L15.6132 10.001L23.6445 5.36361C22.7719 3.97334 21.5204 2.7754 20.0072 1.86636C18.0815 0.713483 15.4028 0 12.4408 0C8.21563 0 4.50885 1.53538 2.44167 3.83469C0.911188 5.53442 0 7.67368 0 10.0008C0 12.3297 0.911188 14.4705 2.44167 16.1714C4.51422 18.4736 8.16579 20 12.3213 20C16.4762 20 20.1267 18.4724 22.2006 16.1714C22.3141 16.0447 22.4241 15.9168 22.5281 15.7841L22.2149 14.6103C20.7578 16.6902 18.3445 18.0528 15.6132 18.0528Z" fill="#787878"/>
<path d="M42.24 19.5158L38.8692 6.94111C38.3277 4.90907 36.4774 3.41553 34.2744 3.41553C33.7031 3.41553 33.1556 3.51761 32.6476 3.7024L25.3908 6.34118H32.8544L34.1298 11.1043C32.8926 10.0395 31.2814 9.39162 29.5171 9.39162C26.0136 9.39162 23.1771 11.7393 23.1771 14.6353C23.1771 17.5316 26.0136 19.8828 29.5171 19.8828C32.0392 19.8828 34.2696 18.648 35.6454 16.7511L36.3853 19.5158H42.24ZM31.9579 17.5627C30.3418 17.5627 29.0318 16.2538 29.0318 14.6353C29.0318 13.0193 30.3418 11.7092 31.9579 11.7092C33.574 11.7092 34.8852 13.0193 34.8852 14.6353C34.8852 16.2538 33.574 17.5627 31.9579 17.5627Z" fill="#787878"/>
<path d="M55.9837 3.41797C55.5415 3.41797 55.1231 3.51575 54.7502 3.69086L50.0908 5.86227C49.8602 4.47522 48.6553 3.41797 47.2018 3.41797C46.7619 3.41797 46.3423 3.51575 45.9646 3.69086L40.2761 6.34147H44.2756V19.5162H50.1303V7.80716C50.1303 6.99925 50.7841 6.34159 51.5946 6.34159C52.4002 6.34159 53.0588 6.99925 53.0588 7.80716V19.5162H58.9111V6.34147C58.9111 4.72576 57.5998 3.41809 55.9837 3.41809" fill="#787878"/>
<path d="M77.9357 11.7094C77.9357 16.2888 74.2242 20.0002 69.6462 20.0002C65.0645 20.0002 61.3507 16.2888 61.3507 11.7094C61.3507 7.13121 65.0645 3.41797 69.6462 3.41797C74.2242 3.41797 77.9357 7.13133 77.9357 11.7094ZM69.9892 5.93434C69.7287 4.95873 68.7258 4.3796 67.7504 4.64185C66.7762 4.90303 66.1941 5.90649 66.4559 6.88199L69.2995 17.4841C69.5625 18.4606 70.563 19.0392 71.5384 18.781C72.5137 18.5168 73.0935 17.514 72.8317 16.5386L69.9892 5.93434Z" fill="#787878"/>
<path d="M92.699 3.41797C92.2556 3.41797 91.8348 3.51575 91.4559 3.69086L86.8013 5.86227C86.5718 4.47522 85.367 3.41797 83.9135 3.41797C83.4736 3.41797 83.054 3.51575 82.6751 3.69086L76.989 6.34147H80.9873V19.5162H86.8408V7.80716C86.8408 6.99925 87.4958 6.34159 88.3062 6.34159C89.1143 6.34159 89.7681 6.99925 89.7681 7.80716V19.5162H95.6252V6.34147C95.6252 4.72576 94.3127 3.41809 92.699 3.41809" fill="#787878"/>
</svg>
