<svg width="98" height="32" viewBox="0 0 98 32" fill="none" xmlns="http://www.w3.org/2000/svg">
<path d="M41.6007 16.8401C41.6007 21.444 37.9991 24.8365 33.5791 24.8365C29.1591 24.8365 25.5574 21.444 25.5574 16.8401C25.5574 12.2038 29.1591 8.84375 33.5791 8.84375C37.9991 8.84375 41.6007 12.2038 41.6007 16.8401ZM38.0892 16.8401C38.0892 13.9632 36.0018 11.9947 33.5791 11.9947C31.1564 11.9947 29.0689 13.9632 29.0689 16.8401C29.0689 19.6883 31.1564 21.6856 33.5791 21.6856C36.0018 21.6856 38.0892 19.6847 38.0892 16.8401Z" fill="#787878"/>
<path d="M58.9058 16.8401C58.9058 21.444 55.3042 24.8365 50.8842 24.8365C46.4642 24.8365 42.8625 21.444 42.8625 16.8401C42.8625 12.2074 46.4642 8.84375 50.8842 8.84375C55.3042 8.84375 58.9058 12.2038 58.9058 16.8401ZM55.3943 16.8401C55.3943 13.9632 53.3069 11.9947 50.8842 11.9947C48.4615 11.9947 46.374 13.9632 46.374 16.8401C46.374 19.6883 48.4615 21.6856 50.8842 21.6856C53.3069 21.6856 55.3943 19.6847 55.3943 16.8401Z" fill="#787878"/>
<path d="M75.4899 9.32685V23.6829C75.4899 29.5882 72.0072 32.0001 67.89 32.0001C64.0144 32.0001 61.6818 29.408 60.8022 27.2881L63.8594 26.0154C64.4038 27.3169 65.7377 28.8528 67.8864 28.8528C70.5219 28.8528 72.155 27.2268 72.155 24.166V23.0159H72.0324C71.2465 23.9857 69.7323 24.8329 67.8215 24.8329C63.8233 24.8329 60.1604 21.3503 60.1604 16.869C60.1604 12.3552 63.8233 8.84375 67.8215 8.84375C69.7287 8.84375 71.2429 9.69098 72.0324 10.6319H72.155V9.33046H75.4899V9.32685ZM72.4038 16.869C72.4038 14.0533 70.5255 11.9947 68.1352 11.9947C65.7125 11.9947 63.6827 14.0533 63.6827 16.869C63.6827 19.6558 65.7125 21.6856 68.1352 21.6856C70.5255 21.6856 72.4038 19.6558 72.4038 16.869Z" fill="#787878"/>
<path d="M80.9878 0.912109V24.3461H77.5629V0.912109H80.9878Z" fill="#787878"/>
<path d="M94.3344 19.4717L97.0599 21.2887C96.1803 22.5902 94.0604 24.8326 90.3975 24.8326C85.8549 24.8326 82.4624 21.3211 82.4624 16.8362C82.4624 12.0809 85.8837 8.83984 90.0045 8.83984C94.1541 8.83984 96.1839 12.1422 96.8472 13.9268L97.2114 14.8353L86.5219 19.2626C87.3402 20.8669 88.6129 21.6853 90.3975 21.6853C92.1857 21.6853 93.4259 20.8056 94.3344 19.4717ZM85.945 16.5947L93.0906 13.6276C92.6976 12.6289 91.5151 11.9331 90.1235 11.9331C88.3389 11.9331 85.8549 13.5086 85.945 16.5947Z" fill="#787878"/>
<path d="M12.5931 14.7598V11.3673H24.0252C24.137 11.9585 24.1947 12.658 24.1947 13.4151C24.1947 15.9603 23.4989 19.1077 21.2564 21.3502C19.0753 23.6215 16.2884 24.8328 12.5967 24.8328C5.75394 24.8328 0 19.2591 0 12.4164C0 5.57368 5.75394 0 12.5967 0C16.3822 0 19.0789 1.48535 21.105 3.42136L18.7111 5.81523C17.2582 4.45246 15.2898 3.39252 12.5931 3.39252C7.59622 3.39252 3.68815 7.41956 3.68815 12.4164C3.68815 17.4132 7.59622 21.4403 12.5931 21.4403C15.8342 21.4403 17.68 20.1388 18.8626 18.9563C19.8215 17.9973 20.4525 16.6273 20.7012 14.7562L12.5931 14.7598Z" fill="#787878"/>
</svg>
