<svg width="130" height="31" viewBox="0 0 130 31" fill="none" xmlns="http://www.w3.org/2000/svg">
<path fill-rule="evenodd" clip-rule="evenodd" d="M73.5117 20.4875C73.5117 20.7454 73.4876 21.0131 73.4203 21.2446C73.1358 22.213 72.1581 23.0333 70.9376 23.0333C69.9211 23.0333 69.1093 22.4378 69.1093 21.1815C69.1093 19.2597 71.1686 18.7289 73.5117 18.7417V20.4875ZM77.1857 17.1395C77.1857 13.9688 75.8679 11.1802 71.418 11.1802C69.1342 11.1802 67.3191 11.8396 66.3297 12.4268L67.0537 14.9748C67.9583 14.3876 69.4004 13.9019 70.7642 13.9019C73.0225 13.8967 73.3918 15.2169 73.3918 16.0628V16.2628C68.4694 16.2545 65.36 18.0064 65.36 21.5762C65.36 23.7566 66.9447 25.8002 69.6973 25.8002C71.3924 25.8002 72.8082 25.1047 73.6565 23.9919H73.7421C73.7421 23.9919 74.303 26.4077 77.4 25.4851C77.2391 24.4784 77.1857 23.404 77.1857 22.1138V17.1395Z" fill="#787878"/>
<path fill-rule="evenodd" clip-rule="evenodd" d="M0 7.74023C0 7.74023 3.19137 20.7454 3.70089 22.8566C4.29532 25.3206 5.36661 26.2264 8.45565 25.6165L10.448 17.5531C10.9539 15.5488 11.2921 14.1219 11.6165 12.0844H11.6739C11.901 14.1429 12.2269 15.5553 12.6428 17.5596C12.6428 17.5596 13.4535 21.2196 13.8694 23.1424C14.2868 25.0637 15.4452 26.2762 18.4703 25.6165L23.22 7.74023H19.3856L17.7641 15.4687C17.3272 17.7177 16.9338 19.4766 16.6275 21.535H16.5738C16.2958 19.4968 15.9445 17.8086 15.5003 15.6174L13.8128 7.74023H9.81653L8.01218 15.4182C7.50048 17.7516 7.02218 19.6361 6.71734 21.6231H6.6629C6.35081 19.7516 5.93492 17.3835 5.4871 15.1252C5.4871 15.1252 4.4129 9.63411 4.03694 7.74023" fill="#787878"/>
<path fill-rule="evenodd" clip-rule="evenodd" d="M30.5097 20.4875C30.5097 20.7454 30.4885 21.0131 30.4183 21.2446C30.1339 22.213 29.1577 23.0333 27.9372 23.0333C26.9186 23.0333 26.1098 22.4378 26.1098 21.1815C26.1098 19.2597 28.1676 18.7289 30.5097 18.7417V20.4875ZM34.1835 17.1395C34.1835 13.9688 32.8666 11.1802 28.4169 11.1802C26.131 11.1802 24.3183 11.8396 23.3274 12.4268L24.0528 14.9748C24.9574 14.3876 26.3979 13.9019 27.7632 13.9019C30.022 13.8967 30.3913 15.2169 30.3913 16.0628V16.2628C25.4685 16.2545 22.36 18.0064 22.36 21.5762C22.36 23.7566 23.9431 25.8002 26.6956 25.8002C28.3891 25.8002 29.8063 25.1047 30.6553 23.9919H30.7379C30.7379 23.9919 31.301 26.4077 34.4 25.4851C34.2362 24.4784 34.1835 23.404 34.1835 22.1138V17.1395Z" fill="#787878"/>
<path fill-rule="evenodd" clip-rule="evenodd" d="M40.42 21.9651V7.74023H36.98V25.8002H40.42" fill="#787878"/>
<path fill-rule="evenodd" clip-rule="evenodd" d="M89.44 7.74023V20.8434C89.44 22.6467 89.7885 23.9137 90.5372 24.6874C91.1886 25.3621 92.2636 25.8002 93.5516 25.8002C94.6496 25.8002 95.7283 25.598 96.2345 25.4138L96.1866 22.5951C95.8094 22.6854 95.3731 22.7578 94.7785 22.7578C93.517 22.7578 93.0941 21.972 93.0941 20.3493V15.3387H96.32V11.9399H93.0941V7.74023" fill="#787878"/>
<path fill-rule="evenodd" clip-rule="evenodd" d="M79.98 12.3438V25.8H83.6635V18.9092C83.6635 18.5375 83.687 18.2127 83.7438 17.9162C84.018 16.4727 85.1012 15.5513 86.6588 15.5513C87.0857 15.5513 87.3918 15.5976 87.72 15.646V12.1232C87.4444 12.0654 87.2555 12.04 86.9095 12.04C85.533 12.04 83.969 12.9426 83.3126 14.8816H83.2118V12.3438" fill="#787878"/>
<path fill-rule="evenodd" clip-rule="evenodd" d="M43 12.3438V25.8H46.7577V17.9083C46.7577 17.5387 46.8008 17.146 46.9346 16.8075C47.2468 16.0127 48.0063 15.0819 49.2178 15.0819C50.734 15.0819 51.4437 16.3287 51.4437 18.131V25.8H55.197V17.8128C55.197 17.4599 55.2468 17.0353 55.3546 16.7214C55.6623 15.8174 56.4805 15.0819 57.6088 15.0819C59.1465 15.0819 59.8838 16.3085 59.8838 18.4268V25.8H63.64V17.875C63.64 13.694 61.4586 12.04 58.9978 12.04C57.9068 12.04 57.0461 12.3055 56.2687 12.7705C55.614 13.1618 55.029 13.7157 54.517 14.4462H54.462C53.8674 12.9961 52.4709 12.04 50.65 12.04C48.3118 12.04 47.2616 13.1929 46.6225 14.1721H46.5667V12.3438" fill="#787878"/>
<path fill-rule="evenodd" clip-rule="evenodd" d="M116.527 10.32C117.262 10.32 117.87 9.9465 117.952 9.46455L118.68 1.44299C118.68 0.650746 117.727 0 116.529 0C115.333 0 114.38 0.650746 114.38 1.44299L115.107 9.46455C115.187 9.9465 115.795 10.32 116.531 10.32" fill="#787878"/>
<path fill-rule="evenodd" clip-rule="evenodd" d="M111.55 12.8831C111.904 12.2162 111.876 11.4645 111.502 11.1322L104.987 6.16861C104.31 5.74457 103.294 6.2565 102.716 7.34281C102.14 8.4268 102.24 9.63878 102.917 10.0644L110.13 13.7119C110.584 13.8946 111.198 13.5446 111.552 12.88" fill="#787878"/>
<path fill-rule="evenodd" clip-rule="evenodd" d="M120.647 12.88C121.003 13.5445 121.615 13.8946 122.067 13.7119L129.283 10.0643C129.962 9.63873 130.059 8.42673 129.481 7.34272C128.905 6.25717 127.889 5.74447 127.211 6.16851L120.695 11.1321C120.323 11.4644 120.298 12.2161 120.649 12.883" fill="#787878"/>
<path fill-rule="evenodd" clip-rule="evenodd" d="M116.527 20.6401C117.262 20.6401 117.87 21.0136 117.952 21.4955L118.68 29.5159C118.68 30.308 117.727 30.9601 116.529 30.9601C115.333 30.9601 114.38 30.308 114.38 29.5159L115.107 21.4955C115.187 21.0136 115.795 20.6401 116.531 20.6401" fill="#787878"/>
<path fill-rule="evenodd" clip-rule="evenodd" d="M120.647 17.2205C121.003 16.5529 121.615 16.206 122.067 16.3879L129.283 20.0345C129.962 20.4608 130.059 21.6727 129.481 22.7582C128.905 23.8414 127.889 24.3556 127.211 23.9316L120.695 18.9682C120.323 18.6344 120.298 17.8835 120.649 17.2174" fill="#787878"/>
<path fill-rule="evenodd" clip-rule="evenodd" d="M111.55 17.2185C111.904 17.8846 111.876 18.6349 111.502 18.9695L104.987 23.9312C104.31 24.3553 103.294 23.8433 102.716 22.76C102.14 21.6743 102.24 20.4607 102.917 20.0343L110.13 16.3888C110.584 16.2045 111.198 16.553 111.552 17.2208" fill="#787878"/>
</svg>
